<?xml version="1.0" encoding="UTF-8"?>
<svg xmlns="http://www.w3.org/2000/svg" xmlns:xlink="http://www.w3.org/1999/xlink" width="615.03pt" height="435.77pt" viewBox="0 0 615.03 435.77" version="1.1">
<defs>
<clipPath id="clip1">
  <path d="M 480 413 L 615 413 L 615 435.769531 L 480 435.769531 Z M 480 413 "/>
</clipPath>
<clipPath id="clip2">
  <path d="M 481 397 L 615.03125 397 L 615.03125 414 L 481 414 Z M 481 397 "/>
</clipPath>
<clipPath id="clip3">
  <path d="M 573 397 L 615.03125 397 L 615.03125 414 L 573 414 Z M 573 397 "/>
</clipPath>
</defs>
<g id="surface1">
<path style=" stroke:none;fill-rule:nonzero;fill:rgb(89.7995%,89.7995%,89.399719%);fill-opacity:1;" d="M 157.246094 153.761719 C 157.246094 153.761719 151.648438 149.179688 142.863281 162.785156 C 134.078125 176.390625 130.457031 184.386719 130.457031 184.386719 C 130.457031 184.386719 128.214844 187.195313 126.351563 185.019531 C 124.484375 182.84375 122.226563 176.972656 118.613281 177.621094 C 114.863281 178.289063 113.246094 182.230469 113.328125 188.273438 C 113.414063 194.320313 113.109375 207.566406 113.078125 208.765625 C 113.046875 209.941406 112.203125 211.59375 110.691406 210.3125 C 109.183594 209.03125 100.917969 197.683594 95.769531 201.929688 C 90.617188 206.175781 93.613281 222.976563 93.90625 224.820313 C 94.199219 226.660156 93.769531 227.394531 92.871094 227.75 C 91.976563 228.105469 89.554688 224.03125 87.074219 220.898438 C 84.589844 217.769531 81.160156 214.574219 78.394531 217.269531 C 75.628906 219.96875 73.585938 232.136719 83.203125 253.222656 L 88.300781 262.703125 L 99.097656 263.203125 C 122.273438 262.875 132.394531 255.820313 133.652344 252.167969 C 134.90625 248.511719 130.550781 246.78125 126.65625 245.875 C 122.765625 244.972656 118.046875 244.527344 117.984375 243.566406 C 117.921875 242.601563 118.398438 241.898438 120.1875 241.375 C 121.980469 240.851563 138.445313 236.371094 140.078125 229.898438 C 141.714844 223.429688 127.917969 220.8125 126.117188 219.996094 C 124.3125 219.183594 125.445313 217.710938 126.492188 217.179688 C 127.5625 216.640625 139.40625 210.695313 144.90625 208.183594 C 150.40625 205.671875 153.277344 202.523438 152.277344 198.847656 C 151.3125 195.304688 145.042969 195.773438 142.277344 195.019531 C 139.507813 194.269531 141.089844 191.039063 141.089844 191.039063 C 141.089844 191.039063 146.765625 184.347656 155.304688 170.582031 C 163.84375 156.816406 157.125 153.675781 157.125 153.675781 L 157.246094 153.761719 "/>
<path style=" stroke:none;fill-rule:nonzero;fill:rgb(84.698486%,85.099792%,85.099792%);fill-opacity:1;" d="M 86.390625 264.453125 C 92.703125 254.367188 104.21875 236.632813 114.027344 221.355469 C 123.828125 206.085938 132.695313 192.25 139.054688 182.199219 C 142.226563 177.179688 144.792969 173.113281 146.574219 170.285156 C 147.460938 168.890625 148.148438 167.800781 148.621094 167.050781 C 148.855469 166.691406 149.035156 166.410156 149.160156 166.210938 C 149.285156 166.023438 149.355469 165.933594 149.355469 165.933594 C 149.355469 165.933594 149.304688 166.035156 149.191406 166.230469 C 149.070313 166.433594 148.898438 166.71875 148.679688 167.085938 C 148.21875 167.84375 147.546875 168.945313 146.6875 170.355469 C 144.949219 173.195313 142.410156 177.285156 139.253906 182.324219 C 132.945313 192.410156 124.113281 206.265625 114.308594 221.535156 C 104.5 236.816406 92.953125 254.527344 86.59375 264.578125 "/>
<path style=" stroke:none;fill-rule:nonzero;fill:rgb(84.698486%,85.099792%,85.099792%);fill-opacity:1;" d="M 121.441406 185.953125 C 121.464844 185.949219 121.53125 186.21875 121.636719 186.707031 C 121.742188 187.195313 121.878906 187.910156 122.035156 188.789063 C 122.34375 190.550781 122.710938 192.992188 123.0625 195.699219 C 123.402344 198.363281 123.710938 200.777344 123.945313 202.621094 C 124.058594 203.453125 124.152344 204.152344 124.226563 204.71875 C 124.296875 205.214844 124.324219 205.488281 124.300781 205.492188 C 124.277344 205.496094 124.207031 205.230469 124.097656 204.738281 C 123.992188 204.25 123.859375 203.539063 123.714844 202.65625 C 123.421875 200.890625 123.085938 198.445313 122.734375 195.742188 C 122.371094 193.078125 122.050781 190.667969 121.800781 188.824219 C 121.683594 187.996094 121.585938 187.292969 121.507813 186.730469 C 121.445313 186.234375 121.417969 185.957031 121.441406 185.953125 "/>
<path style=" stroke:none;fill-rule:nonzero;fill:rgb(84.698486%,85.099792%,85.099792%);fill-opacity:1;" d="M 125.265625 205.785156 C 125.246094 205.691406 130.253906 204.71875 136.441406 203.605469 C 142.632813 202.492188 147.660156 201.664063 147.679688 201.753906 C 147.695313 201.84375 142.691406 202.820313 136.5 203.933594 C 130.3125 205.046875 125.28125 205.875 125.265625 205.785156 "/>
<path style=" stroke:none;fill-rule:nonzero;fill:rgb(84.698486%,85.099792%,85.099792%);fill-opacity:1;" d="M 109.148438 228.5625 C 109.148438 228.539063 109.433594 228.554688 109.941406 228.605469 C 110.515625 228.667969 111.234375 228.742188 112.089844 228.832031 C 113.902344 229.023438 116.40625 229.273438 119.179688 229.449219 C 121.957031 229.632813 124.472656 229.707031 126.296875 229.75 C 127.152344 229.769531 127.875 229.785156 128.453125 229.800781 C 128.964844 229.816406 129.246094 229.835938 129.246094 229.859375 C 129.246094 229.882813 128.964844 229.90625 128.457031 229.929688 C 127.945313 229.953125 127.207031 229.980469 126.292969 229.984375 C 124.46875 230.003906 121.941406 229.964844 119.160156 229.78125 C 116.378906 229.605469 113.867188 229.316406 112.058594 229.066406 C 111.15625 228.941406 110.425781 228.828125 109.921875 228.734375 C 109.421875 228.644531 109.144531 228.585938 109.148438 228.5625 "/>
<path style=" stroke:none;fill-rule:nonzero;fill:rgb(84.698486%,85.099792%,85.099792%);fill-opacity:1;" d="M 101.742188 211.386719 C 101.761719 211.378906 101.890625 211.605469 102.097656 212.027344 C 102.335938 212.519531 102.621094 213.121094 102.960938 213.828125 C 103.675781 215.355469 104.644531 217.476563 105.691406 219.824219 C 106.738281 222.171875 107.671875 224.308594 108.332031 225.859375 C 108.632813 226.585938 108.890625 227.203125 109.097656 227.703125 C 109.269531 228.140625 109.359375 228.390625 109.335938 228.398438 C 109.316406 228.40625 109.1875 228.179688 108.980469 227.757813 C 108.742188 227.265625 108.457031 226.664063 108.117188 225.953125 C 107.402344 224.429688 106.433594 222.308594 105.386719 219.960938 C 104.339844 217.613281 103.40625 215.476563 102.746094 213.925781 C 102.445313 213.199219 102.1875 212.582031 101.980469 212.082031 C 101.804688 211.644531 101.722656 211.394531 101.742188 211.386719 "/>
<path style=" stroke:none;fill-rule:nonzero;fill:rgb(84.698486%,85.099792%,85.099792%);fill-opacity:1;" d="M 84.957031 229.6875 C 84.980469 229.679688 85.140625 229.972656 85.40625 230.511719 C 85.699219 231.113281 86.074219 231.886719 86.523438 232.816406 C 87.449219 234.769531 88.710938 237.476563 90.082031 240.472656 C 91.453125 243.46875 92.679688 246.191406 93.550781 248.167969 C 93.960938 249.117188 94.304688 249.90625 94.570313 250.519531 C 94.800781 251.074219 94.921875 251.386719 94.902344 251.398438 C 94.878906 251.40625 94.71875 251.113281 94.453125 250.570313 C 94.160156 249.972656 93.785156 249.195313 93.335938 248.269531 C 92.410156 246.316406 91.152344 243.609375 89.777344 240.613281 C 88.40625 237.613281 87.179688 234.894531 86.308594 232.914063 C 85.898438 231.96875 85.554688 231.179688 85.289063 230.566406 C 85.054688 230.011719 84.9375 229.695313 84.957031 229.6875 "/>
<path style=" stroke:none;fill-rule:nonzero;fill:rgb(84.698486%,85.099792%,85.099792%);fill-opacity:1;" d="M 94.808594 250.8125 C 94.8125 250.789063 95.167969 250.800781 95.816406 250.84375 C 96.519531 250.890625 97.441406 250.953125 98.550781 251.03125 C 100.855469 251.191406 104.046875 251.398438 107.570313 251.523438 C 111.097656 251.660156 114.292969 251.695313 116.605469 251.703125 C 117.71875 251.710938 118.640625 251.714844 119.347656 251.71875 C 119.992188 251.726563 120.351563 251.738281 120.351563 251.761719 C 120.355469 251.785156 119.996094 251.816406 119.351563 251.847656 C 118.703125 251.882813 117.765625 251.917969 116.609375 251.941406 C 114.292969 251.992188 111.09375 251.992188 107.558594 251.859375 C 104.027344 251.730469 100.835938 251.488281 98.53125 251.269531 C 97.378906 251.15625 96.445313 251.054688 95.804688 250.972656 C 95.160156 250.890625 94.804688 250.835938 94.808594 250.8125 "/>
<path style=" stroke:none;fill-rule:nonzero;fill:rgb(84.698486%,85.099792%,85.099792%);fill-opacity:1;" d="M 69.128906 191.898438 C 69.128906 191.898438 69.246094 193.621094 68.847656 196.828125 C 68.421875 200.011719 67.394531 204.765625 64.355469 210.0625 L 64.25 209.878906 L 64.46875 209.878906 L 64.367188 210.0625 C 57.847656 221.621094 48.066406 238.96875 36.355469 259.734375 L 36.179688 260.046875 L 35.988281 259.742188 C 27.078125 245.527344 17.007813 229.460938 6.382813 212.511719 C 5.882813 211.714844 5.386719 210.921875 4.925781 210.1875 L 4.699219 209.824219 L 5.125 209.828125 L 4.921875 210.179688 C 2.652344 206.289063 1.160156 202.023438 0.460938 197.703125 C 0.128906 195.539063 -0.0585938 193.363281 0.015625 191.210938 C 0.078125 190.136719 0.132813 189.0625 0.191406 187.996094 C 0.351563 186.941406 0.511719 185.890625 0.667969 184.84375 C 2.292969 176.503906 6.824219 169.191406 12.757813 164.175781 C 15.742188 161.683594 19.074219 159.78125 22.496094 158.449219 L 23.785156 157.96875 L 24.425781 157.730469 L 25.082031 157.554688 C 25.960938 157.328125 26.832031 157.101563 27.695313 156.875 C 29.457031 156.609375 31.179688 156.25 32.910156 156.242188 C 34.636719 156.085938 36.328125 156.246094 37.988281 156.335938 C 38.816406 156.398438 39.625 156.578125 40.433594 156.695313 C 40.835938 156.757813 41.234375 156.824219 41.636719 156.886719 C 42.03125 156.972656 42.414063 157.089844 42.800781 157.191406 C 43.574219 157.398438 44.339844 157.605469 45.09375 157.8125 C 45.828125 158.089844 46.550781 158.367188 47.265625 158.640625 C 47.621094 158.78125 47.984375 158.902344 48.332031 159.058594 C 48.667969 159.226563 49.007813 159.394531 49.339844 159.5625 C 50.011719 159.902344 50.671875 160.234375 51.324219 160.566406 C 56.394531 163.515625 60.203125 167.367188 62.828125 171.183594 C 65.46875 175.011719 66.933594 178.785156 67.835938 181.90625 C 68.21875 183.488281 68.605469 184.886719 68.71875 186.140625 C 68.894531 187.382813 69.066406 188.429688 69.054688 189.289063 C 69.085938 190.136719 69.105469 190.785156 69.121094 191.238281 C 69.136719 191.675781 69.128906 191.898438 69.128906 191.898438 C 69.128906 191.898438 69.101563 191.675781 69.074219 191.238281 C 69.046875 190.785156 69.011719 190.140625 68.960938 189.296875 C 68.957031 188.441406 68.769531 187.398438 68.582031 186.160156 C 68.453125 184.914063 68.054688 183.527344 67.664063 181.953125 C 66.738281 178.855469 65.257813 175.117188 62.613281 171.332031 C 59.988281 167.558594 56.195313 163.757813 51.164063 160.851563 C 50.515625 160.527344 49.859375 160.199219 49.195313 159.867188 C 48.863281 159.703125 48.527344 159.535156 48.195313 159.367188 C 47.851563 159.21875 47.492188 159.097656 47.140625 158.960938 C 46.429688 158.691406 45.710938 158.417969 44.984375 158.144531 C 44.238281 157.945313 43.480469 157.742188 42.714844 157.539063 C 42.332031 157.441406 41.953125 157.324219 41.558594 157.242188 C 41.164063 157.179688 40.769531 157.117188 40.371094 157.054688 C 39.570313 156.945313 38.773438 156.769531 37.953125 156.703125 C 36.308594 156.625 34.636719 156.46875 32.929688 156.628906 C 31.222656 156.640625 29.515625 157 27.777344 157.265625 C 26.921875 157.488281 26.0625 157.714844 25.199219 157.945313 L 24.546875 158.117188 L 23.917969 158.355469 L 22.644531 158.832031 C 19.265625 160.15625 15.980469 162.035156 13.03125 164.503906 C 7.183594 169.46875 2.71875 176.695313 1.121094 184.929688 C 0.964844 185.964844 0.808594 187.003906 0.652344 188.046875 C 0.59375 189.097656 0.539063 190.15625 0.480469 191.21875 C 0.40625 193.347656 0.589844 195.492188 0.921875 197.628906 C 1.613281 201.894531 3.085938 206.105469 5.328125 209.941406 L 5.535156 210.296875 L 5.125 210.296875 L 5.324219 209.9375 C 5.78125 210.671875 6.28125 211.464844 6.777344 212.261719 C 17.390625 229.21875 27.449219 245.292969 36.351563 259.515625 L 35.984375 259.523438 C 47.761719 238.796875 57.597656 221.480469 64.15625 209.941406 L 64.261719 210.121094 L 64.039063 210.121094 L 64.148438 209.941406 C 67.195313 204.699219 68.257813 199.976563 68.722656 196.8125 C 68.953125 195.21875 69.019531 193.984375 69.074219 193.15625 C 69.085938 192.753906 69.097656 192.441406 69.105469 192.21875 C 69.117188 192.007813 69.128906 191.898438 69.128906 191.898438 "/>
<path style=" stroke:none;fill-rule:nonzero;fill:rgb(84.698486%,85.099792%,85.099792%);fill-opacity:1;" d="M 56.5625 191.503906 C 56.554688 191.503906 56.542969 191.386719 56.523438 191.152344 C 56.503906 190.894531 56.480469 190.550781 56.449219 190.113281 C 56.433594 189.882813 56.417969 189.628906 56.402344 189.347656 C 56.371094 189.070313 56.3125 188.765625 56.261719 188.433594 C 56.15625 187.777344 56.054688 187.011719 55.804688 186.179688 C 55.417969 184.492188 54.628906 182.5 53.386719 180.386719 C 52.132813 178.28125 50.324219 176.085938 47.863281 174.21875 C 45.40625 172.367188 42.3125 170.792969 38.734375 170.152344 C 35.183594 169.535156 31.171875 169.636719 27.347656 171.078125 C 26.375 171.386719 25.460938 171.867188 24.519531 172.3125 C 23.628906 172.851563 22.6875 173.34375 21.859375 174.015625 C 20.976563 174.617188 20.207031 175.371094 19.398438 176.097656 C 18.667969 176.902344 17.898438 177.691406 17.269531 178.605469 C 15.976563 180.390625 14.84375 182.378906 14.160156 184.5625 C 13.449219 186.734375 13.0625 189.042969 13.027344 191.390625 C 13.050781 193.742188 13.421875 196.050781 14.125 198.226563 C 14.796875 200.417969 15.917969 202.410156 17.203125 204.203125 C 17.828125 205.121094 18.59375 205.914063 19.320313 206.722656 C 20.121094 207.453125 20.890625 208.210938 21.769531 208.816406 C 22.597656 209.492188 23.53125 209.992188 24.421875 210.53125 C 25.359375 210.984375 26.273438 211.46875 27.242188 211.785156 C 31.058594 213.246094 35.074219 213.367188 38.628906 212.765625 C 42.207031 212.144531 45.3125 210.585938 47.777344 208.746094 C 50.246094 206.890625 52.066406 204.703125 53.332031 202.605469 C 54.585938 200.496094 55.382813 198.507813 55.777344 196.824219 C 56.035156 195.992188 56.136719 195.230469 56.246094 194.570313 C 56.296875 194.242188 56.359375 193.9375 56.390625 193.660156 C 56.410156 193.382813 56.425781 193.125 56.441406 192.894531 C 56.476563 192.457031 56.503906 192.113281 56.519531 191.859375 C 56.542969 191.625 56.554688 191.503906 56.5625 191.503906 C 56.574219 191.503906 56.574219 191.625 56.570313 191.859375 C 56.5625 192.117188 56.550781 192.460938 56.535156 192.902344 C 56.527344 193.132813 56.519531 193.390625 56.507813 193.671875 C 56.484375 193.953125 56.429688 194.257813 56.382813 194.59375 C 56.289063 195.257813 56.199219 196.027344 55.953125 196.867188 C 55.585938 198.574219 54.804688 200.59375 53.554688 202.738281 C 52.296875 204.875 50.472656 207.109375 47.976563 209.011719 C 45.488281 210.894531 42.339844 212.496094 38.699219 213.148438 C 35.082031 213.777344 30.992188 213.667969 27.09375 212.191406 C 26.101563 211.871094 25.171875 211.382813 24.210938 210.921875 C 23.304688 210.371094 22.347656 209.863281 21.503906 209.179688 C 20.605469 208.558594 19.816406 207.785156 18.996094 207.042969 C 18.253906 206.21875 17.472656 205.410156 16.832031 204.476563 C 15.519531 202.644531 14.371094 200.609375 13.679688 198.375 C 12.960938 196.152344 12.582031 193.789063 12.554688 191.390625 C 12.59375 188.992188 12.988281 186.632813 13.714844 184.414063 C 14.417969 182.183594 15.574219 180.152344 16.898438 178.332031 C 17.542969 177.398438 18.328125 176.597656 19.078125 175.777344 C 19.902344 175.035156 20.691406 174.269531 21.59375 173.652344 C 22.441406 172.972656 23.402344 172.46875 24.3125 171.925781 C 25.273438 171.46875 26.207031 170.984375 27.199219 170.671875 C 31.105469 169.210938 35.195313 169.121094 38.808594 169.769531 C 42.445313 170.4375 45.585938 172.058594 48.066406 173.953125 C 50.550781 175.867188 52.363281 178.109375 53.609375 180.253906 C 54.847656 182.40625 55.621094 184.429688 55.980469 186.136719 C 56.222656 186.976563 56.308594 187.75 56.398438 188.414063 C 56.441406 188.75 56.496094 189.054688 56.519531 189.335938 C 56.527344 189.617188 56.535156 189.875 56.542969 190.105469 C 56.554688 190.546875 56.566406 190.890625 56.570313 191.148438 C 56.574219 191.386719 56.574219 191.503906 56.5625 191.503906 "/>
<path style=" stroke:none;fill-rule:nonzero;fill:rgb(84.698486%,85.099792%,85.099792%);fill-opacity:1;" d="M 34.242188 201.695313 L 21.519531 192.816406 L 24.617188 188.378906 L 33.148438 194.328125 L 44.183594 180.308594 L 48.4375 183.65625 L 34.242188 201.695313 "/>
<path style=" stroke:none;fill-rule:evenodd;fill:rgb(94.099426%,94.099426%,93.699646%);fill-opacity:1;" d="M 385.195313 60.789063 C 373.492188 61.210938 365.171875 72.140625 367.886719 83.535156 C 369.890625 91.960938 377.738281 97.929688 386.398438 97.613281 C 398.09375 97.1875 406.402344 86.265625 403.699219 74.882813 C 401.695313 66.453125 393.851563 60.480469 385.195313 60.789063 Z M 390.300781 37.328125 C 394.0625 37.800781 397.695313 38.773438 401.121094 40.1875 L 409.074219 33.519531 L 422.738281 43.921875 L 418.433594 53.363281 C 420.707031 56.285156 422.613281 59.53125 424.070313 63.03125 L 434.40625 63.941406 L 436.714844 80.957031 L 426.996094 84.589844 C 426.527344 88.351563 425.550781 91.988281 424.136719 95.410156 L 430.804688 103.367188 L 420.40625 117.027344 L 410.964844 112.722656 C 408.039063 114.996094 404.796875 116.902344 401.292969 118.359375 L 400.382813 128.695313 L 383.367188 131.003906 L 379.734375 121.285156 C 375.972656 120.816406 372.339844 119.84375 368.914063 118.429688 L 360.957031 125.09375 L 347.296875 114.695313 L 351.601563 105.253906 C 349.328125 102.328125 347.421875 99.085938 345.964844 95.582031 L 335.632813 94.671875 L 333.320313 77.65625 L 343.039063 74.027344 C 343.507813 70.265625 344.484375 66.628906 345.898438 63.203125 L 339.230469 55.25 L 349.628906 41.585938 L 359.070313 45.890625 C 361.996094 43.617188 365.238281 41.710938 368.742188 40.253906 L 369.652344 29.921875 L 386.664063 27.613281 L 390.300781 37.328125 "/>
<path style=" stroke:none;fill-rule:evenodd;fill:rgb(89.7995%,89.7995%,89.399719%);fill-opacity:1;" d="M 232.050781 106.957031 C 224.453125 107.226563 219.050781 114.324219 220.8125 121.71875 C 222.113281 127.1875 227.210938 131.066406 232.828125 130.859375 C 240.421875 130.582031 245.816406 123.492188 244.058594 116.101563 C 242.757813 110.632813 237.667969 106.753906 232.050781 106.957031 Z M 235.363281 91.726563 C 237.804688 92.03125 240.164063 92.664063 242.386719 93.582031 L 247.550781 89.253906 L 256.417969 96.003906 L 253.625 102.132813 C 255.101563 104.03125 256.339844 106.136719 257.285156 108.410156 L 263.992188 109.003906 L 265.488281 120.046875 L 259.183594 122.402344 C 258.878906 124.847656 258.246094 127.207031 257.324219 129.429688 L 261.652344 134.59375 L 254.90625 143.460938 L 248.773438 140.667969 C 246.875 142.144531 244.769531 143.378906 242.496094 144.328125 L 241.90625 151.035156 L 230.859375 152.535156 L 228.503906 146.226563 C 226.0625 145.921875 223.703125 145.289063 221.480469 144.371094 L 216.316406 148.699219 L 207.445313 141.945313 L 210.242188 135.816406 C 208.765625 133.917969 207.527344 131.8125 206.582031 129.539063 L 199.875 128.949219 L 198.375 117.90625 L 204.683594 115.546875 C 204.988281 113.105469 205.621094 110.746094 206.539063 108.523438 L 202.210938 103.359375 L 208.960938 94.488281 L 215.089844 97.285156 C 216.988281 95.808594 219.09375 94.570313 221.367188 93.625 L 221.960938 86.917969 L 233.003906 85.417969 L 235.363281 91.726563 "/>
<path style=" stroke:none;fill-rule:nonzero;fill:rgb(89.7995%,89.7995%,89.399719%);fill-opacity:1;" d="M 328.03125 172.453125 C 328.03125 172.453125 329.671875 173.050781 332.023438 175.09375 C 334.324219 177.097656 337.308594 180.886719 338.214844 186.472656 C 338.644531 189.226563 338.570313 192.390625 337.53125 195.535156 C 336.488281 198.65625 334.65625 201.828125 331.820313 204.273438 C 330.445313 205.53125 328.824219 206.582031 327.050781 207.394531 C 325.289063 208.238281 323.355469 208.816406 321.339844 209.066406 C 317.316406 209.65625 312.976563 208.859375 309.183594 206.820313 C 305.421875 204.714844 302.417969 201.484375 300.753906 197.773438 C 299.878906 195.9375 299.328125 193.996094 299.089844 192.058594 C 298.824219 190.128906 298.839844 188.191406 299.160156 186.355469 C 299.695313 182.652344 301.390625 179.402344 303.460938 176.847656 C 305.558594 174.277344 308.183594 172.515625 310.738281 171.398438 C 315.9375 169.160156 320.734375 169.640625 323.660156 170.503906 C 326.644531 171.390625 328.03125 172.453125 328.03125 172.453125 C 327.976563 172.578125 326.503906 171.660156 323.550781 170.921875 C 320.65625 170.203125 316.007813 169.875 311.058594 172.113281 C 308.625 173.234375 306.140625 174.957031 304.171875 177.429688 C 302.230469 179.890625 300.648438 183 300.167969 186.511719 C 299.878906 188.257813 299.875 190.089844 300.140625 191.914063 C 300.375 193.746094 300.902344 195.585938 301.738281 197.3125 C 303.324219 200.816406 306.164063 203.855469 309.714844 205.847656 C 313.304688 207.773438 317.390625 208.53125 321.199219 207.988281 C 323.105469 207.761719 324.9375 207.222656 326.609375 206.433594 C 328.289063 205.675781 329.835938 204.6875 331.148438 203.507813 C 333.851563 201.214844 335.625 198.210938 336.65625 195.25 C 337.683594 192.261719 337.800781 189.242188 337.441406 186.589844 C 336.667969 181.207031 333.894531 177.464844 331.730469 175.410156 C 329.523438 173.316406 327.957031 172.566406 328.03125 172.453125 "/>
<path style=" stroke:none;fill-rule:nonzero;fill:rgb(89.7995%,89.7995%,89.399719%);fill-opacity:1;" d="M 348.65625 156.882813 C 348.640625 156.886719 348.691406 156.664063 348.804688 156.21875 C 348.933594 155.730469 349.105469 155.074219 349.328125 154.226563 C 349.828125 152.402344 350.546875 149.777344 351.480469 146.371094 L 351.566406 146.574219 C 347.507813 144.378906 342.175781 141.492188 335.722656 138.003906 L 336.070313 137.945313 C 333.894531 140.421875 331.476563 143.175781 328.890625 146.121094 L 328.761719 146.269531 L 328.570313 146.222656 C 325.015625 145.359375 321.101563 144.882813 316.984375 144.996094 L 316.765625 145.003906 L 316.65625 144.808594 C 315 141.847656 313.210938 138.636719 311.347656 135.304688 L 311.804688 135.488281 C 306.363281 137.089844 300.589844 138.789063 294.527344 140.570313 L 294.839844 140.125 C 295.050781 143.488281 295.285156 147.191406 295.523438 150.992188 L 295.539063 151.265625 L 295.304688 151.410156 C 292.210938 153.28125 289.046875 155.742188 286.253906 158.695313 L 286.054688 158.90625 L 285.773438 158.824219 C 282.527344 157.902344 278.949219 156.882813 275.308594 155.84375 L 275.878906 155.605469 C 273.160156 160.570313 270.234375 165.925781 267.234375 171.410156 L 267.125 170.773438 C 269.664063 173.019531 272.453125 175.480469 275.277344 177.976563 L 275.515625 178.1875 L 275.441406 178.5 C 274.570313 182.03125 274.085938 186.007813 274.191406 190.03125 L 274.199219 190.355469 L 273.914063 190.515625 C 270.933594 192.171875 267.683594 193.976563 264.398438 195.800781 L 264.65625 195.175781 C 266.253906 200.648438 267.96875 206.515625 269.703125 212.464844 L 269.140625 212.066406 C 272.574219 211.859375 276.277344 211.632813 280.007813 211.402344 L 280.34375 211.382813 L 280.515625 211.671875 C 282.417969 214.828125 284.878906 217.964844 287.765625 220.707031 L 287.769531 220.710938 L 287.769531 220.714844 C 287.839844 220.960938 287.621094 220.160156 287.921875 221.269531 L 287.917969 221.277344 L 287.914063 221.300781 L 287.902344 221.339844 L 287.878906 221.421875 L 287.832031 221.589844 L 287.738281 221.917969 L 287.546875 222.574219 L 287.171875 223.890625 L 286.417969 226.515625 C 285.917969 228.261719 285.421875 230 284.925781 231.730469 L 284.660156 231.09375 C 289.996094 234.019531 295.261719 236.910156 300.449219 239.757813 L 299.773438 239.875 C 302.203125 237.132813 304.609375 234.417969 306.988281 231.730469 L 307.207031 231.484375 L 307.527344 231.5625 C 311.335938 232.507813 315.226563 232.921875 319.058594 232.828125 L 319.382813 232.820313 L 319.539063 233.105469 C 321.324219 236.324219 323.078125 239.496094 324.8125 242.628906 L 324.203125 242.378906 C 330.109375 240.660156 335.875 238.988281 341.5 237.355469 L 341.132813 237.875 C 340.910156 234.1875 340.695313 230.566406 340.484375 227.007813 L 340.464844 226.707031 L 340.722656 226.550781 C 344.125 224.507813 347.171875 222.046875 349.792969 219.300781 L 349.992188 219.089844 L 350.273438 219.171875 C 353.859375 220.203125 357.335938 221.203125 360.726563 222.183594 L 360.195313 222.40625 C 363.257813 216.855469 366.144531 211.617188 368.894531 206.632813 L 368.984375 207.152344 C 366.125 204.609375 363.441406 202.222656 360.851563 199.921875 L 360.671875 199.761719 L 360.730469 199.527344 C 361.734375 195.496094 362.101563 191.625 362.023438 187.960938 L 362.019531 187.738281 L 362.214844 187.632813 C 365.679688 185.722656 368.800781 184.007813 371.75 182.382813 L 371.59375 182.761719 C 369.671875 176.054688 368.03125 170.339844 366.628906 165.445313 L 366.882813 165.625 C 362.542969 165.863281 358.980469 166.058594 356.011719 166.21875 L 355.902344 166.222656 L 355.847656 166.132813 C 353.820313 162.734375 351.914063 160.476563 350.628906 159.019531 C 349.988281 158.332031 349.5 157.804688 349.140625 157.417969 C 348.796875 157.058594 348.640625 156.886719 348.65625 156.882813 C 348.671875 156.878906 348.859375 157.039063 349.210938 157.351563 C 349.558594 157.683594 350.09375 158.1875 350.761719 158.898438 C 352.101563 160.316406 354.0625 162.554688 356.15625 165.949219 L 355.992188 165.863281 C 358.957031 165.660156 362.515625 165.421875 366.851563 165.128906 L 367.050781 165.117188 L 367.105469 165.308594 C 368.554688 170.1875 370.242188 175.886719 372.222656 182.578125 L 372.296875 182.828125 L 372.066406 182.957031 C 369.128906 184.597656 366.019531 186.339844 362.566406 188.269531 L 362.753906 187.941406 C 362.851563 191.667969 362.503906 195.605469 361.503906 199.71875 L 361.378906 199.324219 C 363.980469 201.613281 366.675781 203.988281 369.546875 206.519531 L 369.800781 206.742188 L 369.636719 207.039063 C 366.910156 212.039063 364.042969 217.285156 361.007813 222.847656 L 360.828125 223.171875 L 360.472656 223.070313 C 357.078125 222.105469 353.597656 221.113281 350.007813 220.09375 L 350.488281 219.960938 C 347.816406 222.777344 344.707031 225.304688 341.234375 227.402344 L 341.476563 226.949219 C 341.695313 230.503906 341.921875 234.125 342.152344 237.8125 L 342.175781 238.21875 L 341.785156 238.335938 C 336.164063 239.980469 330.402344 241.664063 324.5 243.390625 L 324.097656 243.511719 L 323.890625 243.140625 C 322.152344 240.011719 320.390625 236.84375 318.601563 233.625 L 319.082031 233.902344 C 315.160156 234.003906 311.171875 233.582031 307.265625 232.617188 L 307.804688 232.449219 C 305.425781 235.140625 303.023438 237.859375 300.597656 240.605469 L 300.308594 240.933594 L 299.921875 240.722656 C 294.730469 237.875 289.464844 234.988281 284.125 232.0625 L 283.738281 231.851563 L 283.859375 231.425781 C 284.355469 229.695313 284.855469 227.953125 285.355469 226.210938 L 286.105469 223.585938 L 286.480469 222.269531 L 286.671875 221.613281 L 286.765625 221.28125 L 286.835938 221.035156 L 286.847656 220.996094 L 286.851563 220.972656 L 286.855469 220.964844 C 287.15625 222.070313 286.9375 221.269531 287.003906 221.515625 L 287 221.511719 C 284.039063 218.699219 281.515625 215.480469 279.570313 212.242188 L 280.074219 212.507813 C 276.347656 212.734375 272.640625 212.960938 269.210938 213.167969 L 268.769531 213.195313 L 268.644531 212.773438 C 266.914063 206.824219 265.207031 200.953125 263.613281 195.480469 L 263.492188 195.0625 L 263.871094 194.851563 C 267.160156 193.03125 270.410156 191.230469 273.394531 189.578125 L 273.121094 190.058594 C 273.015625 185.9375 273.519531 181.859375 274.417969 178.246094 L 274.578125 178.765625 C 271.757813 176.265625 268.976563 173.796875 266.441406 171.546875 L 266.132813 171.273438 L 266.328125 170.914063 C 269.34375 165.433594 272.285156 160.089844 275.011719 155.132813 L 275.199219 154.785156 L 275.578125 154.894531 C 279.222656 155.941406 282.796875 156.972656 286.035156 157.90625 L 285.558594 158.035156 C 288.425781 155.027344 291.664063 152.523438 294.828125 150.625 L 294.609375 151.046875 C 294.386719 147.246094 294.164063 143.542969 293.96875 140.179688 L 293.945313 139.828125 L 294.28125 139.730469 C 300.351563 137.976563 306.132813 136.308594 311.582031 134.730469 L 311.886719 134.644531 L 312.039063 134.917969 C 313.882813 138.265625 315.65625 141.484375 317.292969 144.453125 L 316.964844 144.265625 C 321.152344 144.179688 325.121094 144.6875 328.726563 145.589844 L 328.40625 145.691406 C 331.015625 142.765625 333.453125 140.03125 335.648438 137.570313 L 335.800781 137.402344 L 335.996094 137.511719 C 342.40625 141.074219 347.703125 144.023438 351.734375 146.265625 L 351.859375 146.335938 L 351.820313 146.46875 C 350.816406 149.824219 350.046875 152.410156 349.511719 154.203125 C 349.246094 155.050781 349.046875 155.707031 348.894531 156.199219 C 348.75 156.648438 348.671875 156.878906 348.65625 156.882813 "/>
<path style=" stroke:none;fill-rule:nonzero;fill:rgb(89.7995%,89.7995%,89.399719%);fill-opacity:1;" d="M 390.996094 174.964844 L 375.304688 112.5625 L 439.152344 111.507813 Z M 390.996094 174.964844 "/>
<path style=" stroke:none;fill-rule:nonzero;fill:rgb(89.7995%,89.7995%,89.399719%);fill-opacity:1;" d="M 536.777344 212.320313 L 514.847656 241.222656 L 397.96875 152.53125 L 419.898438 123.628906 L 536.777344 212.320313 "/>
<path style=" stroke:none;fill-rule:nonzero;fill:rgb(94.499207%,35.699463%,39.99939%);fill-opacity:1;" d="M 505.21875 334.484375 L 513.328125 352.875 C 513.328125 352.875 497.359375 367.292969 498.527344 370.839844 L 534.746094 356.394531 L 523.285156 327.222656 L 505.21875 334.484375 "/>
<path style=" stroke:none;fill-rule:nonzero;fill:rgb(50.59967%,13.299561%,17.999268%);fill-opacity:1;" d="M 498.527344 370.839844 C 498.488281 370.714844 498.46875 370.574219 498.46875 370.425781 C 498.464844 366.296875 513.328125 352.875 513.328125 352.875 L 505.21875 334.484375 L 523.285156 327.222656 L 534.746094 356.394531 L 498.527344 370.839844 "/>
<path style=" stroke:none;fill-rule:nonzero;fill:rgb(3.898621%,16.899109%,20.399475%);fill-opacity:1;" d="M 534.746094 356.394531 L 533.476563 353.5 L 499.226563 368.429688 C 499.226563 368.429688 497.894531 369.773438 498.527344 370.839844 L 534.746094 356.394531 "/>
<path style=" stroke:none;fill-rule:nonzero;fill:rgb(94.499207%,35.699463%,39.99939%);fill-opacity:1;" d="M 569 360.535156 L 579.152344 377.878906 C 579.152344 377.878906 564.929688 394.023438 566.496094 397.410156 L 600.832031 378.933594 L 586.121094 351.257813 L 569 360.535156 "/>
<path style=" stroke:none;fill-rule:nonzero;fill:rgb(50.59967%,13.299561%,17.999268%);fill-opacity:1;" d="M 566.496094 397.410156 C 566.414063 397.234375 566.375 397.027344 566.375 396.785156 C 566.363281 392.394531 579.152344 377.878906 579.152344 377.878906 L 573.003906 367.375 L 590.863281 360.175781 L 600.832031 378.933594 L 566.496094 397.410156 "/>
<path style=" stroke:none;fill-rule:nonzero;fill:rgb(3.898621%,16.899109%,20.399475%);fill-opacity:1;" d="M 600.832031 378.933594 L 599.242188 376.203125 L 566.914063 394.941406 C 566.914063 394.941406 565.742188 396.425781 566.496094 397.410156 L 600.832031 378.933594 "/>
<path style=" stroke:none;fill-rule:nonzero;fill:rgb(97.599792%,70.199585%,59.999084%);fill-opacity:1;" d="M 524.691406 117.238281 L 502.433594 118.972656 L 501.695313 106.511719 C 501.695313 106.511719 492.71875 106.378906 491.375 97.609375 C 490.03125 88.839844 488.71875 68.457031 488.71875 68.457031 C 498.269531 62.65625 510.21875 62.480469 519.9375 68 L 521.378906 68.816406 L 524.691406 117.238281 "/>
<path style=" stroke:none;fill-rule:nonzero;fill:rgb(96.899414%,58.399963%,43.899536%);fill-opacity:1;" d="M 501.664063 106.386719 C 501.664063 106.386719 507.277344 106.058594 512.65625 101.519531 C 512.65625 101.519531 510.710938 108.417969 501.835938 108.859375 L 501.664063 106.386719 "/>
<path style=" stroke:none;fill-rule:nonzero;fill:rgb(97.599792%,70.199585%,59.999084%);fill-opacity:1;" d="M 521.574219 78.070313 C 521.71875 77.984375 527.359375 75.433594 528.011719 81.46875 C 528.664063 87.5 522.472656 86.910156 522.445313 86.738281 C 522.417969 86.566406 521.574219 78.070313 521.574219 78.070313 "/>
<path style=" stroke:none;fill-rule:nonzero;fill:rgb(96.899414%,58.399963%,43.899536%);fill-opacity:1;" d="M 524.039063 84.253906 C 524.066406 84.230469 524.152344 84.316406 524.339844 84.378906 C 524.523438 84.4375 524.824219 84.460938 525.128906 84.308594 C 525.738281 84.007813 526.167969 82.9375 526.078125 81.847656 C 526.035156 81.296875 525.863281 80.785156 525.621094 80.375 C 525.390625 79.953125 525.070313 79.675781 524.742188 79.652344 C 524.417969 79.613281 524.210938 79.828125 524.15625 80.007813 C 524.09375 80.183594 524.144531 80.300781 524.113281 80.316406 C 524.097656 80.332031 523.972656 80.230469 523.992188 79.972656 C 524.007813 79.851563 524.0625 79.703125 524.191406 79.570313 C 524.324219 79.4375 524.527344 79.355469 524.753906 79.355469 C 525.222656 79.335938 525.6875 79.71875 525.953125 80.171875 C 526.246094 80.621094 526.449219 81.195313 526.5 81.8125 C 526.59375 83.03125 526.09375 84.238281 525.25 84.582031 C 524.835938 84.738281 524.46875 84.648438 524.269531 84.527344 C 524.066406 84.398438 524.019531 84.269531 524.039063 84.253906 "/>
<path style=" stroke:none;fill-rule:nonzero;fill:rgb(3.898621%,16.899109%,20.399475%);fill-opacity:1;" d="M 492.507813 82.261719 C 492.578125 82.925781 493.199219 83.414063 493.894531 83.355469 C 494.589844 83.296875 495.097656 82.707031 495.03125 82.042969 C 494.960938 81.375 494.339844 80.886719 493.644531 80.945313 C 492.945313 81.003906 492.4375 81.59375 492.507813 82.261719 "/>
<path style=" stroke:none;fill-rule:nonzero;fill:rgb(3.898621%,16.899109%,20.399475%);fill-opacity:1;" d="M 492.117188 80.578125 C 492.296875 80.722656 493.148438 79.886719 494.496094 79.699219 C 495.84375 79.492188 496.933594 80.046875 497.054688 79.863281 C 497.117188 79.777344 496.917969 79.507813 496.441406 79.253906 C 495.972656 79 495.207031 78.796875 494.367188 78.917969 C 493.523438 79.042969 492.863281 79.449219 492.5 79.824219 C 492.128906 80.203125 492.03125 80.519531 492.117188 80.578125 "/>
<path style=" stroke:none;fill-rule:nonzero;fill:rgb(3.898621%,16.899109%,20.399475%);fill-opacity:1;" d="M 505.636719 80.742188 C 505.707031 81.40625 506.328125 81.894531 507.023438 81.835938 C 507.71875 81.777344 508.226563 81.1875 508.15625 80.523438 C 508.089844 79.855469 507.46875 79.367188 506.773438 79.425781 C 506.074219 79.488281 505.566406 80.074219 505.636719 80.742188 "/>
<path style=" stroke:none;fill-rule:nonzero;fill:rgb(3.898621%,16.899109%,20.399475%);fill-opacity:1;" d="M 505.421875 78.964844 C 505.601563 79.105469 506.453125 78.269531 507.804688 78.085938 C 509.148438 77.878906 510.238281 78.433594 510.359375 78.246094 C 510.421875 78.164063 510.222656 77.890625 509.746094 77.640625 C 509.277344 77.386719 508.511719 77.183594 507.671875 77.304688 C 506.832031 77.425781 506.167969 77.835938 505.804688 78.210938 C 505.433594 78.589844 505.335938 78.902344 505.421875 78.964844 "/>
<path style=" stroke:none;fill-rule:nonzero;fill:rgb(3.898621%,16.899109%,20.399475%);fill-opacity:1;" d="M 501.929688 89.664063 C 501.925781 89.589844 501.066406 89.5625 499.683594 89.578125 C 499.332031 89.589844 498.996094 89.570313 498.90625 89.34375 C 498.789063 89.105469 498.882813 88.710938 498.992188 88.289063 C 499.199219 87.40625 499.414063 86.484375 499.640625 85.519531 C 500.53125 81.582031 501.125 78.367188 500.96875 78.332031 C 500.808594 78.296875 499.957031 81.460938 499.066406 85.394531 C 498.855469 86.367188 498.652344 87.289063 498.460938 88.175781 C 498.386719 88.585938 498.222656 89.058594 498.472656 89.550781 C 498.601563 89.796875 498.882813 89.949219 499.109375 89.976563 C 499.34375 90.011719 499.535156 89.988281 499.707031 89.976563 C 501.085938 89.855469 501.9375 89.742188 501.929688 89.664063 "/>
<path style=" stroke:none;fill-rule:nonzero;fill:rgb(3.898621%,16.899109%,20.399475%);fill-opacity:1;" d="M 506.035156 90.039063 C 505.8125 90.058594 506.015625 91.523438 504.910156 92.742188 C 503.804688 93.960938 502.21875 94.015625 502.234375 94.222656 C 502.226563 94.316406 502.625 94.457031 503.285156 94.382813 C 503.933594 94.3125 504.851563 93.972656 505.527344 93.230469 C 506.203125 92.484375 506.414063 91.585938 506.378906 90.980469 C 506.347656 90.359375 506.132813 90.019531 506.035156 90.039063 "/>
<path style=" stroke:none;fill-rule:nonzero;fill:rgb(3.898621%,16.899109%,20.399475%);fill-opacity:1;" d="M 504.328125 73.726563 C 504.515625 74.074219 505.839844 73.710938 507.449219 73.675781 C 509.058594 73.613281 510.398438 73.898438 510.5625 73.539063 C 510.636719 73.367188 510.363281 73.054688 509.800781 72.773438 C 509.238281 72.488281 508.371094 72.265625 507.40625 72.292969 C 506.441406 72.324219 505.59375 72.597656 505.050781 72.914063 C 504.5 73.230469 504.246094 73.558594 504.328125 73.726563 "/>
<path style=" stroke:none;fill-rule:nonzero;fill:rgb(3.898621%,16.899109%,20.399475%);fill-opacity:1;" d="M 492.0625 76.601563 C 492.34375 76.875 493.230469 76.425781 494.347656 76.253906 C 495.457031 76.042969 496.441406 76.171875 496.613281 75.820313 C 496.6875 75.648438 496.496094 75.363281 496.039063 75.132813 C 495.59375 74.898438 494.878906 74.761719 494.109375 74.890625 C 493.347656 75.023438 492.71875 75.394531 492.375 75.765625 C 492.023438 76.132813 491.9375 76.46875 492.0625 76.601563 "/>
<path style=" stroke:none;fill-rule:nonzero;fill:rgb(3.898621%,16.899109%,20.399475%);fill-opacity:1;" d="M 483.65625 63.511719 C 483.410156 62.4375 483.652344 61.210938 484.449219 60.445313 C 485.242188 59.683594 486.625 59.53125 487.460938 60.25 C 486.839844 58.84375 487.804688 56.980469 489.308594 56.671875 C 490.730469 56.378906 492.101563 57.289063 493.539063 57.472656 C 494.945313 57.65625 496.347656 57.128906 497.574219 56.425781 C 498.800781 55.71875 499.914063 54.824219 501.164063 54.160156 C 503.769531 52.769531 506.925781 52.453125 509.753906 53.300781 C 512.578125 54.148438 515.046875 56.144531 516.460938 58.734375 C 518.296875 57.863281 520.613281 58.53125 522.027344 59.992188 C 523.441406 61.453125 524.046875 63.546875 524.09375 65.578125 C 524.121094 66.953125 523.914063 68.3125 523.640625 69.664063 C 523.65625 69.777344 523.683594 69.886719 523.699219 70 C 524.285156 74.84375 524.539063 80.589844 522.480469 80.914063 C 518.898438 81.472656 518.804688 74.585938 518.804688 74.585938 C 514.15625 73.503906 514.867188 66.664063 513.625 65.820313 C 512.382813 64.972656 509.75 62.96875 501.183594 68.984375 C 497.855469 71.320313 493.085938 71.929688 490.398438 71.707031 L 490.164063 71.691406 L 490.109375 71.6875 L 490.027344 71.667969 C 489.171875 71.570313 488.324219 71.363281 487.519531 71 C 486.609375 70.585938 485.75 69.976563 485.265625 69.105469 C 484.78125 68.230469 484.753906 67.058594 485.382813 66.28125 C 484.582031 65.523438 483.90625 64.589844 483.65625 63.511719 "/>
<path style=" stroke:none;fill-rule:nonzero;fill:rgb(89.7995%,89.7995%,89.399719%);fill-opacity:1;" d="M 501.664063 114.144531 L 502.65625 149.019531 L 524.355469 102.308594 L 523.8125 97.984375 L 501.664063 114.144531 "/>
<path style=" stroke:none;fill-rule:nonzero;fill:rgb(3.898621%,16.899109%,20.399475%);fill-opacity:1;" d="M 516.058594 218.394531 C 515.261719 218.65625 470.089844 264.34375 471.101563 272.550781 C 472.117188 280.757813 504.277344 341.535156 504.277344 341.535156 L 527.222656 330.222656 L 505.699219 276.9375 L 505.980469 273.632813 L 532.285156 252.078125 L 530.878906 217.414063 L 516.058594 218.394531 "/>
<path style=" stroke:none;fill-rule:nonzero;fill:rgb(3.898621%,16.899109%,20.399475%);fill-opacity:1;" d="M 525.800781 227.398438 C 526.324219 228.195313 534.148438 299.972656 536.246094 303.6875 C 538.34375 307.402344 569.765625 368.679688 569.765625 368.679688 L 593.09375 359.277344 L 564.613281 291.929688 L 567.859375 228.191406 L 566.101563 210.191406 L 530.878906 217.414063 L 525.800781 227.398438 "/>
<path style=" stroke:none;fill-rule:nonzero;fill:rgb(19.999695%,34.498596%,38.798523%);fill-opacity:1;" d="M 535.835938 302.421875 C 535.816406 302.425781 535.765625 302.179688 535.683594 301.703125 C 535.597656 301.183594 535.484375 300.496094 535.34375 299.632813 C 535.0625 297.777344 534.671875 295.179688 534.1875 291.996094 C 533.253906 285.496094 531.972656 276.605469 530.558594 266.78125 C 529.203125 256.945313 527.976563 248.046875 527.078125 241.539063 C 526.660156 238.347656 526.320313 235.742188 526.078125 233.882813 C 525.976563 233.015625 525.894531 232.320313 525.832031 231.796875 C 525.78125 231.320313 525.761719 231.066406 525.78125 231.066406 C 525.796875 231.0625 525.847656 231.308594 525.933594 231.78125 C 526.019531 232.304688 526.132813 232.992188 526.273438 233.855469 C 526.554688 235.710938 526.945313 238.304688 527.429688 241.488281 C 528.363281 247.992188 529.644531 256.882813 531.054688 266.710938 C 532.414063 276.542969 533.640625 285.441406 534.539063 291.949219 C 534.953125 295.140625 535.296875 297.746094 535.535156 299.605469 C 535.640625 300.472656 535.722656 301.167969 535.785156 301.691406 C 535.835938 302.167969 535.851563 302.421875 535.835938 302.421875 "/>
<path style=" stroke:none;fill-rule:nonzero;fill:rgb(19.999695%,34.498596%,38.798523%);fill-opacity:1;" d="M 564.019531 289.871094 C 564.15625 289.910156 563.546875 292.457031 562.664063 295.558594 C 561.78125 298.664063 560.960938 301.148438 560.824219 301.109375 C 560.691406 301.074219 561.300781 298.527344 562.183594 295.421875 C 563.066406 292.320313 563.886719 289.835938 564.019531 289.871094 "/>
<path style=" stroke:none;fill-rule:nonzero;fill:rgb(19.999695%,34.498596%,38.798523%);fill-opacity:1;" d="M 567.550781 306.128906 C 567.503906 306.160156 566.953125 305.53125 566.277344 304.359375 C 565.601563 303.191406 564.847656 301.453125 564.410156 299.429688 C 563.984375 297.402344 563.964844 295.507813 564.105469 294.167969 C 564.242188 292.820313 564.488281 292.019531 564.546875 292.03125 C 564.714844 292.042969 564.03125 295.351563 564.902344 299.324219 C 565.726563 303.304688 567.699219 306.050781 567.550781 306.128906 "/>
<path style=" stroke:none;fill-rule:nonzero;fill:rgb(19.999695%,34.498596%,38.798523%);fill-opacity:1;" d="M 498.175781 269.207031 C 498.21875 269.089844 500.105469 269.875 501.941406 271.558594 C 503.785156 273.230469 504.738281 275.035156 504.628906 275.09375 C 504.5 275.175781 503.386719 273.542969 501.601563 271.929688 C 499.828125 270.300781 498.101563 269.339844 498.175781 269.207031 "/>
<path style=" stroke:none;fill-rule:nonzero;fill:rgb(19.999695%,34.498596%,38.798523%);fill-opacity:1;" d="M 501.714844 267.085938 C 501.804688 266.992188 502.957031 268.011719 503.9375 269.609375 C 504.929688 271.207031 505.324219 272.691406 505.199219 272.730469 C 505.0625 272.78125 504.472656 271.414063 503.511719 269.875 C 502.5625 268.328125 501.609375 267.1875 501.714844 267.085938 "/>
<path style=" stroke:none;fill-rule:nonzero;fill:rgb(94.499207%,35.699463%,39.99939%);fill-opacity:1;" d="M 504.835938 162.375 L 510.609375 191.027344 L 515.308594 231.007813 C 515.308594 231.007813 534.683594 228.304688 542.941406 225.691406 C 552.519531 222.65625 573.363281 220.074219 573.363281 220.074219 L 569.847656 223.550781 C 577.304688 221.464844 582.054688 214.347656 582.054688 214.347656 C 569.199219 202.429688 558.238281 177.90625 558.238281 177.90625 L 548.464844 129.382813 C 548.464844 129.382813 546.980469 122.539063 546.085938 119.496094 C 545.191406 116.449219 530.351563 106.632813 528.292969 105.390625 L 527.003906 104.78125 L 526.589844 100.890625 L 525.0625 99.976563 L 509 114.566406 C 505.878906 117.40625 503.886719 121.277344 503.410156 125.46875 C 502.910156 129.890625 502.460938 136.234375 502.710938 143.722656 C 502.902344 149.40625 504.835938 162.375 504.835938 162.375 "/>
<path style=" stroke:none;fill-rule:nonzero;fill:rgb(94.499207%,35.699463%,39.99939%);fill-opacity:1;" d="M 515.859375 112.742188 C 515.859375 112.742188 507.375 117.289063 505.902344 121.152344 C 504.433594 125.011719 508.804688 167.335938 508.804688 167.335938 L 478.339844 167.90625 L 478.242188 186.0625 C 478.242188 186.0625 526.636719 189.886719 528.523438 187.269531 C 531.066406 183.734375 534.027344 150.660156 534.027344 150.660156 L 535.125 126.867188 C 535.125 126.867188 532.320313 108.71875 515.859375 112.742188 "/>
<path style=" stroke:none;fill-rule:nonzero;fill:rgb(72.898865%,23.899841%,28.199768%);fill-opacity:1;" d="M 519.160156 192.347656 C 516.273438 192.347656 513.515625 191.96875 510.609375 191.027344 L 510.039063 188.113281 C 510.039063 188.113281 515.578125 188.511719 519.90625 188.511719 C 521.210938 188.511719 522.402344 188.476563 523.304688 188.382813 C 524.203125 188.289063 525.148438 188.222656 526.003906 187.953125 C 527.402344 187.804688 528.296875 187.585938 528.523438 187.269531 C 529.246094 186.265625 530.003906 182.875 530.714844 178.535156 C 531.929688 172.617188 532.65625 165.238281 533.027344 160.671875 C 533.179688 159.246094 533.320313 157.910156 533.441406 156.707031 C 534.378906 159.492188 535.71875 164.410156 535.304688 167.132813 C 534.871094 169.96875 534.160156 172.765625 533.996094 175.628906 C 533.808594 178.921875 534.328125 182.367188 533.085938 185.425781 C 531.464844 189.417969 527.09375 191.769531 522.804688 192.167969 C 521.554688 192.28125 520.347656 192.347656 519.160156 192.347656 "/>
<path style=" stroke:none;fill-rule:nonzero;fill:rgb(72.898865%,23.899841%,28.199768%);fill-opacity:1;" d="M 526.003906 187.953125 C 526.46875 187.804688 526.902344 187.59375 527.285156 187.285156 C 528.222656 186.53125 528.753906 185.398438 529.171875 184.273438 C 529.753906 182.703125 530.269531 180.71875 530.714844 178.535156 C 530.003906 182.875 529.246094 186.265625 528.523438 187.269531 C 528.296875 187.585938 527.402344 187.804688 526.003906 187.953125 M 533.027344 160.671875 C 533.234375 158.070313 533.328125 156.378906 533.328125 156.378906 C 533.367188 156.484375 533.402344 156.59375 533.441406 156.707031 C 533.320313 157.910156 533.179688 159.246094 533.027344 160.671875 "/>
<path style=" stroke:none;fill-rule:nonzero;fill:rgb(3.898621%,16.899109%,20.399475%);fill-opacity:1;" d="M 535.074219 129.4375 C 535.082031 129.4375 535.082031 129.582031 535.074219 129.867188 C 535.0625 130.175781 535.046875 130.597656 535.027344 131.132813 C 534.972656 132.269531 534.894531 133.902344 534.792969 135.992188 C 534.679688 138.113281 534.546875 140.691406 534.390625 143.683594 C 534.207031 146.679688 534.105469 150.097656 533.738281 153.859375 C 533.410156 157.625 533.015625 161.742188 532.546875 166.160156 C 532.054688 170.578125 531.53125 175.296875 530.691406 180.234375 C 530.453125 181.46875 530.261719 182.710938 529.855469 183.96875 C 529.433594 185.203125 528.707031 186.390625 527.65625 187.257813 C 526.621094 188.105469 525.25 188.707031 523.867188 188.613281 C 522.523438 188.640625 521.175781 188.605469 519.8125 188.589844 C 514.375 188.457031 508.753906 188.179688 503 187.867188 C 494.351563 187.386719 486.015625 186.847656 478.226563 186.300781 L 478.003906 186.285156 L 478.003906 186.0625 C 478.042969 179.613281 478.078125 173.539063 478.113281 167.9375 L 478.113281 167.726563 L 478.320313 167.722656 C 490.488281 167.460938 500.617188 167.242188 507.730469 167.089844 C 511.257813 167.027344 514.035156 166.980469 515.957031 166.945313 C 516.886719 166.9375 517.609375 166.929688 518.125 166.925781 C 518.613281 166.925781 518.867188 166.941406 518.867188 166.941406 C 518.867188 166.941406 518.613281 166.972656 518.125 166.992188 C 517.613281 167.015625 516.890625 167.042969 515.960938 167.078125 C 514.039063 167.140625 511.261719 167.226563 507.738281 167.339844 C 500.625 167.535156 490.496094 167.816406 478.332031 168.152344 L 478.542969 167.9375 C 478.523438 173.539063 478.503906 179.617188 478.480469 186.0625 L 478.261719 185.824219 C 486.046875 186.355469 494.382813 186.886719 503.027344 187.363281 C 508.777344 187.675781 514.398438 187.960938 519.824219 188.101563 C 521.179688 188.117188 522.527344 188.152344 523.851563 188.125 C 525.152344 188.222656 526.378906 187.667969 527.351563 186.886719 C 528.324219 186.089844 529.007813 184.988281 529.410156 183.8125 C 529.796875 182.632813 529.996094 181.367188 530.234375 180.152344 C 531.085938 175.242188 531.625 170.527344 532.132813 166.117188 C 532.621094 161.703125 533.035156 157.589844 533.386719 153.828125 C 533.777344 150.070313 533.898438 146.65625 534.109375 143.660156 C 534.300781 140.675781 534.464844 138.097656 534.597656 135.980469 C 534.738281 133.894531 534.847656 132.261719 534.925781 131.128906 C 534.96875 130.589844 535 130.171875 535.023438 129.867188 C 535.050781 129.582031 535.066406 129.4375 535.074219 129.4375 "/>
<path style=" stroke:none;fill-rule:nonzero;fill:rgb(3.898621%,16.899109%,20.399475%);fill-opacity:1;" d="M 484.222656 185.796875 C 484.085938 185.796875 483.992188 181.851563 484.019531 176.992188 C 484.046875 172.128906 484.179688 168.1875 484.316406 168.191406 C 484.453125 168.191406 484.546875 172.132813 484.519531 176.996094 C 484.496094 181.855469 484.363281 185.796875 484.222656 185.796875 "/>
<path style=" stroke:none;fill-rule:nonzero;fill:rgb(3.898621%,16.899109%,20.399475%);fill-opacity:1;" d="M 480.992188 170.949219 C 480.933594 170.914063 481.238281 170.574219 481.816406 170.769531 C 482.085938 170.851563 482.40625 171.148438 482.433594 171.574219 C 482.46875 171.976563 482.269531 172.445313 481.816406 172.660156 C 481.355469 172.859375 480.875 172.707031 480.589844 172.4375 C 480.285156 172.152344 480.230469 171.746094 480.292969 171.476563 C 480.429688 170.902344 480.832031 170.78125 480.84375 170.839844 C 480.890625 170.894531 480.652344 171.105469 480.644531 171.519531 C 480.640625 171.722656 480.710938 171.945313 480.898438 172.089844 C 481.078125 172.242188 481.382813 172.308594 481.609375 172.203125 C 481.835938 172.105469 481.976563 171.828125 481.972656 171.601563 C 481.976563 171.367188 481.839844 171.191406 481.667969 171.089844 C 481.316406 170.882813 481.023438 171.011719 480.992188 170.949219 "/>
<path style=" stroke:none;fill-rule:nonzero;fill:rgb(94.499207%,35.699463%,39.99939%);fill-opacity:1;" d="M 548.597656 133.542969 C 548.597656 133.542969 564.449219 154.265625 566.382813 159.914063 C 568.3125 165.5625 566.820313 173.671875 563.59375 177.550781 C 560.363281 181.429688 557.761719 179.851563 557.761719 179.851563 L 548.597656 133.542969 "/>
<path style=" stroke:none;fill-rule:nonzero;fill:rgb(3.898621%,16.899109%,20.399475%);fill-opacity:1;" d="M 557.195313 178.1875 C 557.21875 178.324219 555.4375 178.742188 553.222656 179.125 C 551.003906 179.503906 549.1875 179.703125 549.164063 179.566406 C 549.140625 179.429688 550.917969 179.011719 553.136719 178.628906 C 555.351563 178.25 557.171875 178.050781 557.195313 178.1875 "/>
<path style=" stroke:none;fill-rule:nonzero;fill:rgb(3.898621%,16.899109%,20.399475%);fill-opacity:1;" d="M 560.242188 193.46875 C 560.273438 193.460938 560.425781 193.851563 560.671875 194.5625 C 560.910156 195.277344 561.277344 196.304688 561.746094 197.566406 C 562.679688 200.089844 564.121094 203.519531 566.003906 207.171875 C 567.890625 210.816406 569.84375 213.988281 571.328125 216.234375 C 572.070313 217.359375 572.679688 218.261719 573.105469 218.882813 C 573.53125 219.507813 573.753906 219.863281 573.726563 219.882813 C 573.699219 219.902344 573.425781 219.589844 572.949219 219 C 572.472656 218.410156 571.816406 217.535156 571.035156 216.433594 C 569.472656 214.230469 567.457031 211.070313 565.558594 207.402344 C 563.664063 203.730469 562.265625 200.25 561.410156 197.683594 C 560.980469 196.402344 560.667969 195.355469 560.484375 194.621094 C 560.296875 193.886719 560.207031 193.480469 560.242188 193.46875 "/>
<path style=" stroke:none;fill-rule:nonzero;fill:rgb(72.898865%,23.899841%,28.199768%);fill-opacity:1;" d="M 573.285156 218.140625 C 573.207031 218.140625 573.128906 218.132813 573.050781 218.113281 C 572.625 218.015625 572.316406 217.664063 572.050781 217.320313 C 571.824219 216.984375 571.585938 216.621094 571.328125 216.234375 C 569.84375 213.988281 567.890625 210.816406 566.003906 207.171875 C 564.230469 203.734375 562.851563 200.492188 561.914063 198.019531 C 561.765625 197.550781 561.625 197.082031 561.488281 196.609375 L 561.316406 195.925781 C 563.828125 200.402344 566.410156 204.964844 570.238281 208.386719 C 571.589844 209.597656 573.101563 210.667969 574.132813 212.160156 C 575.160156 213.648438 575.605469 215.734375 574.628906 217.261719 C 574.328125 217.730469 573.824219 218.140625 573.285156 218.140625 "/>
<path style=" stroke:none;fill-rule:nonzero;fill:rgb(0%,9.399414%,12.89978%);fill-opacity:1;" d="M 572.050781 217.320313 C 572.035156 217.304688 572.023438 217.289063 572.011719 217.273438 C 567.542969 211.519531 564.109375 204.964844 561.914063 198.019531 C 562.851563 200.492188 564.230469 203.734375 566.003906 207.171875 C 567.890625 210.816406 569.84375 213.988281 571.328125 216.234375 C 571.585938 216.621094 571.824219 216.984375 572.050781 217.320313 "/>
<path style=" stroke:none;fill-rule:nonzero;fill:rgb(72.898865%,23.899841%,28.199768%);fill-opacity:1;" d="M 559.226563 179.773438 L 557.773438 177.6875 L 549.929688 136.667969 L 551.480469 142.414063 C 553.496094 150.667969 555.796875 157.503906 559.199219 165.058594 C 560.300781 167.496094 561.511719 169.941406 561.835938 172.597656 C 562.15625 175.25 561.394531 178.214844 559.226563 179.773438 "/>
<path style=" stroke:none;fill-rule:nonzero;fill:rgb(3.898621%,16.899109%,20.399475%);fill-opacity:1;" d="M 519.984375 110.902344 C 519.894531 110.785156 521.320313 109.574219 522.9375 107.949219 C 524.566406 106.328125 525.773438 104.90625 525.890625 104.996094 C 525.996094 105.074219 524.945313 106.65625 523.292969 108.304688 C 521.644531 109.957031 520.0625 111.007813 519.984375 110.902344 "/>
<path style=" stroke:none;fill-rule:nonzero;fill:rgb(3.898621%,16.899109%,20.399475%);fill-opacity:1;" d="M 518.382813 114.414063 C 518.40625 114.496094 517.46875 114.78125 516.066406 115.472656 C 514.664063 116.160156 512.828125 117.335938 511.148438 119.027344 C 509.476563 120.726563 508.320313 122.578125 507.652344 123.988281 C 506.972656 125.398438 506.703125 126.34375 506.617188 126.316406 C 506.585938 126.308594 506.625 126.066406 506.726563 125.632813 C 506.820313 125.195313 507.023438 124.582031 507.328125 123.84375 C 507.929688 122.363281 509.070313 120.425781 510.789063 118.675781 C 512.519531 116.933594 514.445313 115.769531 515.914063 115.152344 C 516.648438 114.839844 517.261719 114.628906 517.699219 114.53125 C 518.132813 114.421875 518.371094 114.378906 518.382813 114.414063 "/>
<path style=" stroke:none;fill-rule:nonzero;fill:rgb(3.898621%,16.899109%,20.399475%);fill-opacity:1;" d="M 560.953125 183.898438 C 560.9375 183.90625 560.855469 183.769531 560.703125 183.5 C 560.535156 183.179688 560.324219 182.789063 560.070313 182.308594 C 559.503906 181.199219 558.734375 179.695313 557.789063 177.847656 L 557.773438 177.808594 C 556.785156 173.265625 555.382813 166.640625 553.855469 159.273438 C 552.449219 152.328125 551.175781 146.046875 550.234375 141.410156 C 549.808594 139.175781 549.453125 137.339844 549.195313 135.988281 C 549.09375 135.390625 549.007813 134.902344 548.9375 134.507813 C 548.882813 134.167969 548.863281 133.988281 548.882813 133.984375 C 548.898438 133.980469 548.949219 134.152344 549.035156 134.484375 C 549.128906 134.875 549.246094 135.359375 549.386719 135.945313 C 549.683594 137.289063 550.089844 139.117188 550.585938 141.339844 C 551.5625 145.964844 552.886719 152.238281 554.347656 159.171875 C 555.871094 166.539063 557.214844 173.175781 558.105469 177.738281 L 558.09375 177.695313 C 558.980469 179.574219 559.703125 181.101563 560.234375 182.226563 C 560.460938 182.722656 560.640625 183.128906 560.789063 183.457031 C 560.910156 183.738281 560.96875 183.890625 560.953125 183.898438 "/>
<path style=" stroke:none;fill-rule:nonzero;fill:rgb(3.898621%,16.899109%,20.399475%);fill-opacity:1;" d="M 508.28125 167.320313 C 508.246094 167.324219 508.164063 166.789063 508.050781 165.816406 C 507.933594 164.757813 507.78125 163.375 507.601563 161.703125 C 507.246094 158.230469 506.789063 153.425781 506.316406 148.117188 C 505.84375 142.808594 505.441406 138 505.175781 134.515625 C 505.058594 132.84375 504.964844 131.453125 504.886719 130.390625 C 504.832031 129.414063 504.816406 128.875 504.851563 128.871094 C 504.886719 128.871094 504.96875 129.40625 505.082031 130.375 C 505.199219 131.433594 505.347656 132.820313 505.53125 134.488281 C 505.886719 137.964844 506.34375 142.765625 506.816406 148.074219 C 507.289063 153.382813 507.691406 158.191406 507.953125 161.671875 C 508.070313 163.347656 508.167969 164.734375 508.242188 165.800781 C 508.300781 166.773438 508.316406 167.316406 508.28125 167.320313 "/>
<path style=" stroke:none;fill-rule:nonzero;fill:rgb(97.599792%,70.199585%,59.999084%);fill-opacity:1;" d="M 478.71875 170.03125 C 478.71875 170.03125 472.148438 165.046875 470.546875 164.746094 C 469.316406 164.515625 461.984375 164.636719 458.609375 164.707031 C 457.3125 164.734375 456.175781 165.753906 456.191406 167.050781 L 456.214844 167.289063 C 456.476563 168.65625 457.816406 168.953125 457.816406 168.953125 C 457.816406 168.953125 456.070313 169.457031 456.039063 171.359375 C 456.011719 173.265625 458.316406 173.664063 458.316406 173.664063 C 458.316406 173.664063 458.179688 173.769531 457.988281 173.960938 C 456.730469 175.21875 457.367188 177.378906 459.105469 177.773438 L 460.144531 178.007813 C 460.144531 178.007813 458.738281 178.59375 458.757813 179.898438 C 458.796875 182.40625 464.433594 182.886719 464.433594 182.886719 C 464.433594 182.886719 478.363281 185.09375 478.664063 184.992188 C 478.964844 184.890625 478.71875 170.03125 478.71875 170.03125 "/>
<path style=" stroke:none;fill-rule:nonzero;fill:rgb(97.599792%,70.199585%,59.999084%);fill-opacity:1;" d="M 459.90625 161.742188 C 459.96875 162.570313 460.164063 164.328125 461.566406 165.125 L 469.332031 164.820313 C 469.332031 164.820313 463.550781 162.824219 462.726563 161.839844 C 462.441406 161.492188 462.042969 161.066406 461.621094 160.757813 C 460.882813 160.21875 459.839844 160.835938 459.90625 161.742188 "/>
<path style=" stroke:none;fill-rule:nonzero;fill:rgb(96.899414%,58.399963%,43.899536%);fill-opacity:1;" d="M 465.679688 164.746094 C 465.683594 164.878906 464.09375 165.03125 462.136719 164.996094 C 460.183594 164.960938 458.601563 164.886719 458.597656 164.746094 C 458.59375 164.609375 460.179688 164.457031 462.140625 164.492188 C 464.09375 164.53125 465.675781 164.601563 465.679688 164.746094 "/>
<path style=" stroke:none;fill-rule:nonzero;fill:rgb(96.899414%,58.399963%,43.899536%);fill-opacity:1;" d="M 463.933594 169.078125 C 463.949219 169.210938 462.578125 169.453125 460.875 169.390625 C 459.167969 169.332031 457.820313 168.996094 457.84375 168.863281 C 457.867188 168.722656 459.222656 168.832031 460.890625 168.890625 C 462.5625 168.953125 463.921875 168.9375 463.933594 169.078125 "/>
<path style=" stroke:none;fill-rule:nonzero;fill:rgb(96.899414%,58.399963%,43.899536%);fill-opacity:1;" d="M 467.886719 168.527344 C 468 168.597656 467.851563 169.019531 467.414063 169.300781 C 466.972656 169.585938 466.527344 169.550781 466.511719 169.414063 C 466.484375 169.277344 466.800781 169.105469 467.140625 168.882813 C 467.484375 168.660156 467.765625 168.445313 467.886719 168.527344 "/>
<path style=" stroke:none;fill-rule:nonzero;fill:rgb(96.899414%,58.399963%,43.899536%);fill-opacity:1;" d="M 464.789063 173.996094 C 464.777344 174.136719 463.28125 174.199219 461.445313 174.136719 C 459.605469 174.078125 458.117188 173.914063 458.117188 173.777344 C 458.113281 173.640625 459.613281 173.574219 461.460938 173.636719 C 463.308594 173.695313 464.800781 173.859375 464.789063 173.996094 "/>
<path style=" stroke:none;fill-rule:nonzero;fill:rgb(96.899414%,58.399963%,43.899536%);fill-opacity:1;" d="M 469.226563 171.921875 C 469.289063 171.902344 469.410156 172.058594 469.445313 172.367188 C 469.484375 172.664063 469.410156 173.117188 469.109375 173.5 C 468.808594 173.882813 468.386719 174.058594 468.089844 174.09375 C 467.78125 174.128906 467.601563 174.046875 467.605469 173.984375 C 467.601563 173.847656 468.273438 173.761719 468.71875 173.191406 C 469.167969 172.625 469.09375 171.949219 469.226563 171.921875 "/>
<path style=" stroke:none;fill-rule:nonzero;fill:rgb(96.899414%,58.399963%,43.899536%);fill-opacity:1;" d="M 465.960938 178.8125 C 465.945313 178.949219 464.59375 178.898438 462.945313 178.691406 C 461.292969 178.488281 459.96875 178.210938 459.988281 178.074219 C 460.003906 177.9375 461.355469 177.992188 463.007813 178.195313 C 464.65625 178.398438 465.976563 178.675781 465.960938 178.8125 "/>
<path style=" stroke:none;fill-rule:nonzero;fill:rgb(96.899414%,58.399963%,43.899536%);fill-opacity:1;" d="M 470.292969 176.363281 C 470.359375 176.355469 470.453125 176.527344 470.445313 176.828125 C 470.4375 177.125 470.304688 177.53125 470.027344 177.882813 C 469.460938 178.570313 468.824219 178.816406 468.753906 178.726563 C 468.652344 178.605469 469.164063 178.148438 469.632813 177.574219 C 470.109375 176.996094 470.164063 176.386719 470.292969 176.363281 "/>
<path style=" stroke:none;fill-rule:nonzero;fill:rgb(94.499207%,35.699463%,39.99939%);fill-opacity:1;" d="M 567.214844 223.972656 C 569.957031 223.726563 572.539063 222.097656 573.945313 219.730469 C 574.105469 219.460938 574.242188 219.09375 574.03125 218.863281 C 573.894531 218.703125 573.65625 218.6875 573.445313 218.6875 C 571.277344 218.664063 569.105469 219.039063 567.066406 219.78125 C 566.835938 219.863281 566.582031 219.976563 566.496094 220.207031 C 566.433594 220.375 566.476563 220.5625 566.519531 220.734375 C 566.796875 221.785156 567.066406 222.835938 567.339844 223.886719 L 567.214844 223.972656 "/>
<path style=" stroke:none;fill-rule:nonzero;fill:rgb(61.999512%,18.798828%,23.899841%);fill-opacity:1;" d="M 567.214844 223.972656 L 567.339844 223.886719 C 567.089844 222.925781 566.839844 221.964844 566.59375 221.003906 C 566.566406 220.914063 566.546875 220.824219 566.519531 220.734375 C 566.492188 220.621094 566.464844 220.507813 566.464844 220.394531 C 566.464844 220.332031 566.472656 220.269531 566.496094 220.207031 C 566.582031 219.976563 566.835938 219.863281 567.066406 219.78125 C 569.054688 219.058594 571.167969 218.683594 573.285156 218.683594 C 573.339844 218.683594 573.390625 218.683594 573.445313 218.6875 C 573.65625 218.6875 573.894531 218.703125 574.03125 218.863281 C 574.109375 218.949219 574.140625 219.050781 574.140625 219.160156 C 574.136719 219.351563 574.046875 219.558594 573.945313 219.730469 C 573.097656 221.160156 571.820313 222.316406 570.339844 223.066406 C 569.363281 223.558594 568.300781 223.875 567.214844 223.972656 "/>
<path style=" stroke:none;fill-rule:nonzero;fill:rgb(89.7995%,89.7995%,89.399719%);fill-opacity:1;" d="M 501.664063 114.144531 C 501.664063 114.144531 498.46875 124.875 499.347656 124.265625 C 500.230469 123.65625 502.140625 121.960938 502.140625 121.960938 L 501.664063 114.144531 "/>
<path style=" stroke:none;fill-rule:nonzero;fill:rgb(3.898621%,16.899109%,20.399475%);fill-opacity:1;" d="M 501.847656 119.09375 L 500.101563 123.269531 C 499.933594 123.703125 499.820313 124.152344 499.761719 124.617188 C 499.617188 125.789063 499.449219 127.933594 500.148438 128.082031 C 501.109375 128.289063 502.015625 127.308594 502.015625 127.308594 L 501.847656 119.09375 "/>
<path style=" stroke:none;fill-rule:nonzero;fill:rgb(3.898621%,16.899109%,20.399475%);fill-opacity:1;" d="M 556.050781 119.75 C 556.050781 119.75 538.953125 113.078125 529.484375 118.972656 C 520.019531 124.859375 518.296875 134.261719 512.65625 134.261719 C 501.664063 134.261719 502.015625 126.503906 502.015625 126.503906 L 499.679688 127.210938 C 499.632813 128.796875 497.132813 140.195313 508.71875 141.605469 C 520.304688 143.019531 525.171875 127.226563 535.59375 127.210938 C 546.015625 127.195313 553.929688 132.847656 553.929688 132.847656 L 561.417969 128.109375 L 556.050781 119.75 "/>
<path style=" stroke:none;fill-rule:nonzero;fill:rgb(19.999695%,34.498596%,38.798523%);fill-opacity:1;" d="M 512.179688 141.417969 C 512.179688 141.417969 516.445313 139.234375 518.777344 133.851563 C 521.429688 127.722656 527.132813 120.726563 531.894531 118.972656 C 536.652344 117.214844 547.667969 115.984375 555.277344 120.945313 L 560.148438 127.527344 L 553.824219 131.628906 C 553.824219 131.628906 548.824219 128.882813 542.675781 127.164063 C 534.8125 124.972656 530.035156 127.449219 525.464844 131.777344 C 525.179688 132.046875 524.921875 132.3125 524.691406 132.570313 C 523.539063 133.878906 520.351563 136.910156 517.457031 138.976563 C 515.21875 140.570313 513.199219 141.4375 512.179688 141.417969 "/>
<path style=" stroke:none;fill-rule:nonzero;fill:rgb(94.499207%,35.699463%,39.99939%);fill-opacity:1;" d="M 158.1875 48.335938 C 148.050781 49.898438 140.613281 41.382813 138.242188 33.796875 C 136.054688 26.796875 135.015625 19.515625 131.941406 12.855469 C 127.644531 3.550781 116.265625 -0.75 106.050781 0.109375 C 95.835938 0.96875 85.542969 6.089844 76.507813 10.925781 L 79 66.941406 C 79 66.941406 98.679688 45.988281 108.136719 45.605469 C 123.914063 44.96875 123.054688 70.902344 138.375 74.730469 C 138.375 74.730469 159.851563 80.554688 174.371094 61.800781 C 183.589844 49.894531 184.40625 35.433594 184.40625 35.433594 C 184.40625 35.433594 177.347656 45.386719 158.1875 48.335938 "/>
<path style=" stroke:none;fill-rule:nonzero;fill:rgb(3.898621%,16.899109%,20.399475%);fill-opacity:1;" d="M 76.09375 1.632813 C 76.234375 1.625 78.992188 61.109375 82.257813 134.476563 C 85.523438 207.871094 88.058594 267.351563 87.917969 267.359375 C 87.78125 267.363281 85.023438 207.890625 81.757813 134.5 C 78.492188 61.132813 75.957031 1.640625 76.09375 1.632813 "/>
<path style=" stroke:none;fill-rule:nonzero;fill:rgb(85.099792%,27.799988%,32.199097%);fill-opacity:1;" d="M 144.039063 64.828125 C 142.992188 64.828125 142.066406 64.535156 141.21875 63.605469 C 140.03125 62.308594 138.449219 60.746094 137.550781 59.214844 C 132.921875 51.324219 130.632813 40.042969 130.253906 31.121094 L 130.253906 29.921875 C 131.652344 35.164063 134.792969 42.164063 137.710938 46.738281 C 140.632813 51.308594 145.0625 55.160156 150.375 56.265625 C 151.335938 56.46875 152.328125 56.582031 153.214844 57.007813 C 154.101563 57.429688 154.878906 58.253906 154.90625 59.234375 C 154.949219 60.703125 153.433594 61.660156 152.117188 62.308594 C 150.242188 63.234375 148.339844 64.164063 146.285156 64.550781 C 145.472656 64.703125 144.730469 64.828125 144.039063 64.828125 "/>
<path style=" stroke:none;fill-rule:nonzero;fill:rgb(3.898621%,16.899109%,20.399475%);fill-opacity:1;" d="M 143.96875 65.894531 C 143.957031 65.910156 143.800781 65.820313 143.511719 65.636719 C 143.222656 65.449219 142.808594 65.152344 142.300781 64.746094 C 141.292969 63.917969 139.914063 62.59375 138.558594 60.683594 C 137.195313 58.78125 135.886719 56.292969 134.816406 53.398438 C 133.734375 50.503906 132.851563 47.230469 132.042969 43.773438 C 130.429688 36.847656 129.71875 30.429688 129.460938 25.785156 C 129.328125 23.464844 129.308594 21.578125 129.308594 20.28125 C 129.324219 19.675781 129.335938 19.179688 129.34375 18.78125 C 129.355469 18.441406 129.371094 18.261719 129.390625 18.261719 C 129.40625 18.261719 129.425781 18.441406 129.445313 18.78125 C 129.460938 19.179688 129.480469 19.675781 129.503906 20.277344 C 129.5625 21.574219 129.640625 23.449219 129.8125 25.761719 C 130.160156 30.386719 130.925781 36.765625 132.53125 43.660156 C 133.335938 47.101563 134.203125 50.367188 135.25 53.238281 C 136.285156 56.113281 137.542969 58.578125 138.851563 60.480469 C 140.148438 62.390625 141.46875 63.734375 142.429688 64.597656 C 143.398438 65.453125 143.992188 65.859375 143.96875 65.894531 "/>
<path style=" stroke:none;fill-rule:nonzero;fill:rgb(84.698486%,85.099792%,85.099792%);fill-opacity:1;" d="M 14.953125 279.183594 L 148.921875 301.117188 L 148.921875 279.183594 L 14.953125 279.183594 "/>
<path style=" stroke:none;fill-rule:nonzero;fill:rgb(84.698486%,85.099792%,85.099792%);fill-opacity:1;" d="M 171.039063 328.730469 L 305.011719 350.660156 L 305.011719 328.730469 L 171.039063 328.730469 "/>
<path style=" stroke:none;fill-rule:nonzero;fill:rgb(84.698486%,85.099792%,85.099792%);fill-opacity:1;" d="M 326.050781 376.125 L 460.023438 398.054688 L 460.023438 376.125 L 326.050781 376.125 "/>
<g clip-path="url(#clip1)" clip-rule="nonzero">
<path style=" stroke:none;fill-rule:nonzero;fill:rgb(84.698486%,85.099792%,85.099792%);fill-opacity:1;" d="M 480.859375 413.839844 L 614.828125 435.769531 L 614.828125 413.839844 L 480.859375 413.839844 "/>
</g>
<path style=" stroke:none;fill-rule:nonzero;fill:rgb(94.499207%,35.699463%,39.99939%);fill-opacity:1;" d="M 14.953125 279.183594 L 148.921875 279.183594 L 148.921875 262.757813 L 14.953125 262.757813 Z M 14.953125 279.183594 "/>
<path style=" stroke:none;fill-rule:nonzero;fill:rgb(72.898865%,23.899841%,28.199768%);fill-opacity:1;" d="M 107.117188 279.183594 L 148.921875 279.183594 L 148.921875 262.757813 L 107.117188 262.757813 Z M 107.117188 279.183594 "/>
<path style=" stroke:none;fill-rule:nonzero;fill:rgb(94.499207%,35.699463%,39.99939%);fill-opacity:1;" d="M 171.039063 328.730469 L 305.011719 328.730469 L 305.011719 312.300781 L 171.039063 312.300781 Z M 171.039063 328.730469 "/>
<path style=" stroke:none;fill-rule:nonzero;fill:rgb(72.898865%,23.899841%,28.199768%);fill-opacity:1;" d="M 263.203125 328.730469 L 305.011719 328.730469 L 305.011719 312.300781 L 263.203125 312.300781 Z M 263.203125 328.730469 "/>
<path style=" stroke:none;fill-rule:nonzero;fill:rgb(94.499207%,35.699463%,39.99939%);fill-opacity:1;" d="M 326.050781 376.125 L 460.023438 376.125 L 460.023438 359.695313 L 326.050781 359.695313 Z M 326.050781 376.125 "/>
<path style=" stroke:none;fill-rule:nonzero;fill:rgb(72.898865%,23.899841%,28.199768%);fill-opacity:1;" d="M 418.214844 376.125 L 460.023438 376.125 L 460.023438 359.695313 L 418.214844 359.695313 Z M 418.214844 376.125 "/>
<g clip-path="url(#clip2)" clip-rule="nonzero">
<path style=" stroke:none;fill-rule:nonzero;fill:rgb(94.499207%,35.699463%,39.99939%);fill-opacity:1;" d="M 481.0625 413.839844 L 615.035156 413.839844 L 615.035156 397.410156 L 481.0625 397.410156 Z M 481.0625 413.839844 "/>
</g>
<g clip-path="url(#clip3)" clip-rule="nonzero">
<path style=" stroke:none;fill-rule:nonzero;fill:rgb(72.898865%,23.899841%,28.199768%);fill-opacity:1;" d="M 615.035156 413.839844 L 573.226563 413.839844 L 573.226563 397.410156 L 615.035156 397.410156 L 615.035156 413.839844 "/>
</g>
<path style=" stroke:none;fill-rule:nonzero;fill:rgb(89.7995%,89.7995%,89.399719%);fill-opacity:1;" d="M 532.472656 337.617188 C 532.472656 339.628906 534.101563 341.261719 536.113281 341.261719 C 538.128906 341.261719 539.757813 339.628906 539.757813 337.617188 C 539.757813 335.605469 538.128906 333.976563 536.113281 333.976563 C 534.101563 333.976563 532.472656 335.605469 532.472656 337.617188 "/>
</g>
</svg>
